<svg width="320" height="320" viewBox="0 0 320 320" fill="none" xmlns="http://www.w3.org/2000/svg">
<g clip-path="url(#clip0_122_2013)">
<g clip-path="url(#clip1_122_2013)">
<path shape-rendering="crispEdges" d="M247.5 262.5H72.5V275H247.5V262.5Z" fill="#11140C"/>
<path shape-rendering="crispEdges" d="M72.5 37.5H47.5V50H72.5V37.5Z" fill="#1C1C1E"/>
<path shape-rendering="crispEdges" d="M272.5 37.5H247.5V50H272.5V37.5Z" fill="#1C1C1E"/>
<path shape-rendering="crispEdges" d="M60 50H47.5V62.5H60V50Z" fill="#1C1C1E"/>
<path shape-rendering="crispEdges" d="M72.5 50H60V62.5H72.5V50Z" fill="#F5A097"/>
<path shape-rendering="crispEdges" d="M85 50H72.5V62.5H85V50Z" fill="#1C1C1E"/>
<path shape-rendering="crispEdges" d="M247.5 50H235V62.5H247.5V50Z" fill="#1C1C1E"/>
<path shape-rendering="crispEdges" d="M260 50H247.5V62.5H260V50Z" fill="#F5A097"/>
<path shape-rendering="crispEdges" d="M272.5 50H260V62.5H272.5V50Z" fill="#1C1C1E"/>
<path shape-rendering="crispEdges" d="M60 62.5H47.5V75H60V62.5Z" fill="#1C1C1E"/>
<path shape-rendering="crispEdges" d="M85 62.5H60V75H85V62.5Z" fill="#F5A097"/>
<path shape-rendering="crispEdges" d="M97.5 62.5H85V75H97.5V62.5Z" fill="#1C1C1E"/>
<path shape-rendering="crispEdges" d="M110 62.5H97.5V75H110V62.5Z" fill="#1C1C1E"/>
<path shape-rendering="crispEdges" d="M222.5 62.5H210V75H222.5V62.5Z" fill="#1C1C1E"/>
<path shape-rendering="crispEdges" d="M235 62.5H222.5V75H235V62.5Z" fill="#1C1C1E"/>
<path shape-rendering="crispEdges" d="M260 62.5H235V75H260V62.5Z" fill="#F5A097"/>
<path shape-rendering="crispEdges" d="M272.5 62.5H260V75H272.5V62.5Z" fill="#1C1C1E"/>
<path shape-rendering="crispEdges" d="M60 75H47.5V87.5H60V75Z" fill="#1C1C1E"/>
<path shape-rendering="crispEdges" d="M97.5 75H60V87.5H97.5V75Z" fill="#F5A097"/>
<path shape-rendering="crispEdges" d="M110 75H97.5V87.5H110V75Z" fill="#1C1C1E"/>
<path shape-rendering="crispEdges" d="M122.5 75H110V87.5H122.5V75Z" fill="#1C1C1E"/>
<path shape-rendering="crispEdges" d="M210 75H197.5V87.5H210V75Z" fill="#1C1C1E"/>
<path shape-rendering="crispEdges" d="M222.5 75H210V87.5H222.5V75Z" fill="#1C1C1E"/>
<path shape-rendering="crispEdges" d="M260 75H222.5V87.5H260V75Z" fill="#F5A097"/>
<path shape-rendering="crispEdges" d="M272.5 75H260V87.5H272.5V75Z" fill="#1C1C1E"/>
<path shape-rendering="crispEdges" d="M60 87.5H47.5V100H60V87.5Z" fill="#1C1C1E"/>
<path shape-rendering="crispEdges" d="M97.5 87.5H60V100H97.5V87.5Z" fill="#F5A097"/>
<path shape-rendering="crispEdges" d="M110 87.5H97.5V100H110V87.5Z" fill="#1C1C1E"/>
<path shape-rendering="crispEdges" d="M122.5 87.5H110V100H122.5V87.5Z" fill="#1C1C1E"/>
<path shape-rendering="crispEdges" d="M135 87.5H122.5V100H135V87.5Z" fill="#1C1C1E"/>
<path shape-rendering="crispEdges" d="M185 87.5H135V100H185V87.5Z" fill="#1C1C1E"/>
<path shape-rendering="crispEdges" d="M197.5 87.5H185V100H197.5V87.5Z" fill="#1C1C1E"/>
<path shape-rendering="crispEdges" d="M210 87.5H197.5V100H210V87.5Z" fill="#1C1C1E"/>
<path shape-rendering="crispEdges" d="M222.5 87.5H210V100H222.5V87.5Z" fill="#1C1C1E"/>
<path shape-rendering="crispEdges" d="M260 87.5H222.5V100H260V87.5Z" fill="#F5A097"/>
<path shape-rendering="crispEdges" d="M272.5 87.5H260V100H272.5V87.5Z" fill="#1C1C1E"/>
<path shape-rendering="crispEdges" d="M60 100H47.5V112.5H60V100Z" fill="#1C1C1E"/>
<path shape-rendering="crispEdges" d="M85 100H60V112.5H85V100Z" fill="#F5A097"/>
<path shape-rendering="crispEdges" d="M160 100H85V112.5H160V100Z" fill="#1C1C1E"/>
<path shape-rendering="crispEdges" d="M172.5 100H160V112.5H172.5V100Z" fill="#1C1C1E"/>
<path shape-rendering="crispEdges" d="M235 100H172.5V112.5H235V100Z" fill="#1C1C1E"/>
<path shape-rendering="crispEdges" d="M260 100H235V112.5H260V100Z" fill="#F5A097"/>
<path shape-rendering="crispEdges" d="M272.5 100H260V112.5H272.5V100Z" fill="#1C1C1E"/>
<path shape-rendering="crispEdges" d="M60 112.5H47.5V125H60V112.5Z" fill="#1C1C1E"/>
<path shape-rendering="crispEdges" d="M72.5 112.5H60V125H72.5V112.5Z" fill="#1C1C1E"/>
<path shape-rendering="crispEdges" d="M135 112.5H72.5V125H135V112.5Z" fill="#1C1C1E"/>
<path shape-rendering="crispEdges" d="M147.5 112.5H135V125H147.5V112.5Z" fill="#1C1C1E"/>
<path shape-rendering="crispEdges" d="M160 112.5H147.5V125H160V112.5Z" fill="#1C1C1E"/>
<path shape-rendering="crispEdges" d="M172.5 112.5H160V125H172.5V112.5Z" fill="#1C1C1E"/>
<path shape-rendering="crispEdges" d="M185 112.5H172.5V125H185V112.5Z" fill="#1C1C1E"/>
<path shape-rendering="crispEdges" d="M197.5 112.5H185V125H197.5V112.5Z" fill="#1C1C1E"/>
<path shape-rendering="crispEdges" d="M247.5 112.5H197.5V125H247.5V112.5Z" fill="#1C1C1E"/>
<path shape-rendering="crispEdges" d="M260 112.5H247.5V125H260V112.5Z" fill="#1C1C1E"/>
<path shape-rendering="crispEdges" d="M272.5 112.5H260V125H272.5V112.5Z" fill="#1C1C1E"/>
<path shape-rendering="crispEdges" d="M122.5 125H60V137.5H122.5V125Z" fill="#1C1C1E"/>
<path shape-rendering="crispEdges" d="M135 125H122.5V137.5H135V125Z" fill="#1C1C1E"/>
<path shape-rendering="crispEdges" d="M147.5 125H135V137.5H147.5V125Z" fill="#1C1C1E"/>
<path shape-rendering="crispEdges" d="M160 125H147.5V137.5H160V125Z" fill="#1C1C1E"/>
<path shape-rendering="crispEdges" d="M172.5 125H160V137.5H172.5V125Z" fill="white"/>
<path shape-rendering="crispEdges" d="M185 125H172.5V137.5H185V125Z" fill="#1C1C1E"/>
<path shape-rendering="crispEdges" d="M197.5 125H185V137.5H197.5V125Z" fill="#1C1C1E"/>
<path shape-rendering="crispEdges" d="M210 125H197.5V137.5H210V125Z" fill="#1C1C1E"/>
<path shape-rendering="crispEdges" d="M260 125H210V137.5H260V125Z" fill="#1C1C1E"/>
<path shape-rendering="crispEdges" d="M85 137.5H60V150H85V137.5Z" fill="#1C1C1E"/>
<path shape-rendering="crispEdges" d="M160 137.5H85V150H160V137.5Z" fill="#1C1C1E"/>
<path shape-rendering="crispEdges" d="M172.5 137.5H160V150H172.5V137.5Z" fill="white"/>
<path shape-rendering="crispEdges" d="M247.5 137.5H172.5V150H247.5V137.5Z" fill="#1C1C1E"/>
<path shape-rendering="crispEdges" d="M260 137.5H247.5V150H260V137.5Z" fill="#1C1C1E"/>
<path shape-rendering="crispEdges" d="M72.5 150H60V162.5H72.5V150Z" fill="#1C1C1E"/>
<path shape-rendering="crispEdges" d="M160 150H72.5V162.5H160V150Z" fill="#1C1C1E"/>
<path shape-rendering="crispEdges" d="M172.5 150H160V162.5H172.5V150Z" fill="white"/>
<path shape-rendering="crispEdges" d="M260 150H172.5V162.5H260V150Z" fill="#1C1C1E"/>
<path shape-rendering="crispEdges" d="M72.5 162.5H60V175H72.5V162.5Z" fill="#1C1C1E"/>
<path shape-rendering="crispEdges" d="M160 162.5H72.5V175H160V162.5Z" fill="#1C1C1E"/>
<path shape-rendering="crispEdges" d="M172.5 162.5H160V175H172.5V162.5Z" fill="white"/>
<path shape-rendering="crispEdges" d="M260 162.5H172.5V175H260V162.5Z" fill="#1C1C1E"/>
<path shape-rendering="crispEdges" d="M72.5 175H60V187.5H72.5V175Z" fill="#1C1C1E"/>
<path shape-rendering="crispEdges" d="M147.5 175H72.5V187.5H147.5V175Z" fill="#1C1C1E"/>
<path shape-rendering="crispEdges" d="M185 175H147.5V187.5H185V175Z" fill="white"/>
<path shape-rendering="crispEdges" d="M260 175H185V187.5H260V175Z" fill="#1C1C1E"/>
<path shape-rendering="crispEdges" d="M72.5 187.5H60V200H72.5V187.5Z" fill="#1C1C1E"/>
<path shape-rendering="crispEdges" d="M147.5 187.5H72.5V200H147.5V187.5Z" fill="#1C1C1E"/>
<path shape-rendering="crispEdges" d="M185 187.5H147.5V200H185V187.5Z" fill="white"/>
<path shape-rendering="crispEdges" d="M260 187.5H185V200H260V187.5Z" fill="#1C1C1E"/>
<path shape-rendering="crispEdges" d="M72.5 200H60V212.5H72.5V200Z" fill="#1C1C1E"/>
<path shape-rendering="crispEdges" d="M122.5 200H72.5V212.5H122.5V200Z" fill="#1C1C1E"/>
<path shape-rendering="crispEdges" d="M210 200H122.5V212.5H210V200Z" fill="white"/>
<path shape-rendering="crispEdges" d="M260 200H210V212.5H260V200Z" fill="#1C1C1E"/>
<path shape-rendering="crispEdges" d="M272.5 200H260V212.5H272.5V200Z" fill="#1C1C1E"/>
<path shape-rendering="crispEdges" d="M110 212.5H35V225H110V212.5Z" fill="#9CB8C7"/>
<path shape-rendering="crispEdges" d="M147.5 212.5H110V225H147.5V212.5Z" fill="white"/>
<path shape-rendering="crispEdges" d="M185 212.5H147.5V225H185V212.5Z" fill="#F5A097"/>
<path shape-rendering="crispEdges" d="M222.5 212.5H185V225H222.5V212.5Z" fill="white"/>
<path shape-rendering="crispEdges" d="M297.5 212.5H222.5V225H297.5V212.5Z" fill="#9CB8C7"/>
<path shape-rendering="crispEdges" d="M72.5 225H47.5V237.5H72.5V225Z" fill="#1C1C1E"/>
<path shape-rendering="crispEdges" d="M97.5 225H72.5V237.5H97.5V225Z" fill="#1C1C1E"/>
<path shape-rendering="crispEdges" d="M160 225H97.5V237.5H160V225Z" fill="white"/>
<path shape-rendering="crispEdges" d="M172.5 225H160V237.5H172.5V225Z" fill="#E86A73"/>
<path shape-rendering="crispEdges" d="M235 225H172.5V237.5H235V225Z" fill="white"/>
<path shape-rendering="crispEdges" d="M260 225H235V237.5H260V225Z" fill="#1C1C1E"/>
<path shape-rendering="crispEdges" d="M285 225H260V237.5H285V225Z" fill="#1C1C1E"/>
<path shape-rendering="crispEdges" d="M97.5 237.5H35V250H97.5V237.5Z" fill="#9CB8C7"/>
<path shape-rendering="crispEdges" d="M135 237.5H97.5V250H135V237.5Z" fill="white"/>
<path shape-rendering="crispEdges" d="M185 237.5H135V250H185V237.5Z" fill="#E9B5A3"/>
<path shape-rendering="crispEdges" d="M235 237.5H185V250H235V237.5Z" fill="white"/>
<path shape-rendering="crispEdges" d="M297.5 237.5H235V250H297.5V237.5Z" fill="#9CB8C7"/>
<path shape-rendering="crispEdges" d="M60 250H35V262.5H60V250Z" fill="#1C1C1E"/>
<path shape-rendering="crispEdges" d="M85 250H60V262.5H85V250Z" fill="#1C1C1E"/>
<path shape-rendering="crispEdges" d="M247.5 250H85V262.5H247.5V250Z" fill="white"/>
<path shape-rendering="crispEdges" d="M272.5 250H247.5V262.5H272.5V250Z" fill="#1C1C1E"/>
<path shape-rendering="crispEdges" d="M297.5 250H272.5V262.5H297.5V250Z" fill="#1C1C1E"/>
<path shape-rendering="crispEdges" d="M122.5 150H97.5V162.5H122.5V150Z" fill="white"/>
<path shape-rendering="crispEdges" d="M135 150H122.5V162.5H135V150Z" fill="#0E1818"/>
<path shape-rendering="crispEdges" d="M147.5 150H135V162.5H147.5V150Z" fill="white"/>
<path shape-rendering="crispEdges" d="M210 150H185V162.5H210V150Z" fill="white"/>
<path shape-rendering="crispEdges" d="M222.5 150H210V162.5H222.5V150Z" fill="#0E1818"/>
<path shape-rendering="crispEdges" d="M235 150H222.5V162.5H235V150Z" fill="white"/>
<path shape-rendering="crispEdges" d="M122.5 162.5H97.5V175H122.5V162.5Z" fill="white"/>
<path shape-rendering="crispEdges" d="M147.5 162.5H122.5V175H147.5V162.5Z" fill="#1C1C1E"/>
<path shape-rendering="crispEdges" d="M210 162.5H185V175H210V162.5Z" fill="white"/>
<path shape-rendering="crispEdges" d="M235 162.5H210V175H235V162.5Z" fill="#1C1C1E"/>
<path shape-rendering="crispEdges" d="M122.5 175H97.5V187.5H122.5V175Z" fill="white"/>
<path shape-rendering="crispEdges" d="M147.5 175H122.5V187.5H147.5V175Z" fill="#1C1C1E"/>
<path shape-rendering="crispEdges" d="M210 175H185V187.5H210V175Z" fill="white"/>
<path shape-rendering="crispEdges" d="M235 175H210V187.5H235V175Z" fill="#1C1C1E"/>
<path shape-rendering="crispEdges" d="M122.5 187.5H97.5V200H122.5V187.5Z" fill="white"/>
<path shape-rendering="crispEdges" d="M147.5 187.5H122.5V200H147.5V187.5Z" fill="#1C1C1E"/>
<path shape-rendering="crispEdges" d="M210 187.5H185V200H210V187.5Z" fill="white"/>
<path shape-rendering="crispEdges" d="M235 187.5H210V200H235V187.5Z" fill="#1C1C1E"/>
<path shape-rendering="crispEdges" d="M160 137.5H85V150H160V137.5Z" fill="#8DD122"/>
<path shape-rendering="crispEdges" d="M247.5 137.5H172.5V150H247.5V137.5Z" fill="#8DD122"/>
<path shape-rendering="crispEdges" d="M97.5 150H85V162.5H97.5V150Z" fill="#8DD122"/>
<path shape-rendering="crispEdges" d="M160 150H147.5V162.5H160V150Z" fill="#8DD122"/>
<path shape-rendering="crispEdges" d="M185 150H172.5V162.5H185V150Z" fill="#8DD122"/>
<path shape-rendering="crispEdges" d="M247.5 150H235V162.5H247.5V150Z" fill="#8DD122"/>
<path shape-rendering="crispEdges" d="M97.5 162.5H47.5V175H97.5V162.5Z" fill="#8DD122"/>
<path shape-rendering="crispEdges" d="M185 162.5H147.5V175H185V162.5Z" fill="#8DD122"/>
<path shape-rendering="crispEdges" d="M247.5 162.5H235V175H247.5V162.5Z" fill="#8DD122"/>
<path shape-rendering="crispEdges" d="M60 175H47.5V187.5H60V175Z" fill="#8DD122"/>
<path shape-rendering="crispEdges" d="M97.5 175H85V187.5H97.5V175Z" fill="#8DD122"/>
<path shape-rendering="crispEdges" d="M160 175H147.5V187.5H160V175Z" fill="#8DD122"/>
<path shape-rendering="crispEdges" d="M185 175H172.5V187.5H185V175Z" fill="#8DD122"/>
<path shape-rendering="crispEdges" d="M247.5 175H235V187.5H247.5V175Z" fill="#8DD122"/>
<path shape-rendering="crispEdges" d="M60 187.5H47.5V200H60V187.5Z" fill="#8DD122"/>
<path shape-rendering="crispEdges" d="M97.5 187.5H85V200H97.5V187.5Z" fill="#8DD122"/>
<path shape-rendering="crispEdges" d="M160 187.5H147.5V200H160V187.5Z" fill="#8DD122"/>
<path shape-rendering="crispEdges" d="M185 187.5H172.5V200H185V187.5Z" fill="#8DD122"/>
<path shape-rendering="crispEdges" d="M247.5 187.5H235V200H247.5V187.5Z" fill="#8DD122"/>
<path shape-rendering="crispEdges" d="M160 200H85V212.5H160V200Z" fill="#8DD122"/>
<path shape-rendering="crispEdges" d="M247.5 200H172.5V212.5H247.5V200Z" fill="#8DD122"/>
</g>
</g>
<defs>
<clipPath id="clip0_122_2013">
<rect width="320" height="320" fill="white"/>
</clipPath>
<clipPath id="clip1_122_2013">
<rect width="400" height="400" fill="white" transform="translate(-40)"/>
</clipPath>
</defs>
</svg>
