<svg width="320" height="320" viewBox="0 0 320 320" xmlns="http://www.w3.org/2000/svg" shape-rendering="crispEdges"><rect width="100%" height="100%" fill="none" /><rect width="140" height="10" x="90" y="210" fill="#000" /><rect width="140" height="10" x="90" y="220" fill="#000" /><rect width="140" height="10" x="90" y="230" fill="#000" /><rect width="140" height="10" x="90" y="240" fill="#000" /><rect width="20" height="10" x="90" y="250" fill="#000" /><rect width="110" height="10" x="120" y="250" fill="#000" /><rect width="20" height="10" x="90" y="260" fill="#000" /><rect width="110" height="10" x="120" y="260" fill="#000" /><rect width="20" height="10" x="90" y="270" fill="#000" /><rect width="110" height="10" x="120" y="270" fill="#000" /><rect width="20" height="10" x="90" y="280" fill="#000" /><rect width="110" height="10" x="120" y="280" fill="#000" /><rect width="20" height="10" x="90" y="290" fill="#000" /><rect width="110" height="10" x="120" y="290" fill="#000" /><rect width="20" height="10" x="90" y="300" fill="#000" /><rect width="110" height="10" x="120" y="300" fill="#000" /><rect width="20" height="10" x="90" y="310" fill="#000" /><rect width="110" height="10" x="120" y="310" fill="#000" /><rect width="40" height="10" x="150" y="240" fill="#000" /><rect width="10" height="10" x="140" y="250" fill="#000" /><rect width="20" height="10" x="160" y="250" fill="#000" /><rect width="10" height="10" x="190" y="250" fill="#000" /><rect width="10" height="10" x="130" y="260" fill="#000" /><rect width="20" height="10" x="160" y="260" fill="#000" /><rect width="10" height="10" x="200" y="260" fill="#000" /><rect width="10" height="10" x="140" y="270" fill="#000" /><rect width="10" height="10" x="190" y="270" fill="#000" /><rect width="40" height="10" x="150" y="280" fill="#000" /><rect width="10" height="10" x="80" y="20" fill="#000" /><rect width="10" height="10" x="230" y="20" fill="#000" /><rect width="10" height="10" x="70" y="30" fill="#000" /><rect width="10" height="10" x="80" y="30" fill="#000" /><rect width="10" height="10" x="90" y="30" fill="#000" /><rect width="10" height="10" x="220" y="30" fill="#000" /><rect width="10" height="10" x="230" y="30" fill="#000" /><rect width="10" height="10" x="240" y="30" fill="#000" /><rect width="10" height="10" x="70" y="40" fill="#000" /><rect width="20" height="10" x="80" y="40" fill="#000" /><rect width="10" height="10" x="100" y="40" fill="#000" /><rect width="10" height="10" x="210" y="40" fill="#000" /><rect width="20" height="10" x="220" y="40" fill="#000" /><rect width="10" height="10" x="240" y="40" fill="#000" /><rect width="10" height="10" x="70" y="50" fill="#000" /><rect width="30" height="10" x="80" y="50" fill="#000" /><rect width="10" height="10" x="110" y="50" fill="#000" /><rect width="10" height="10" x="200" y="50" fill="#000" /><rect width="30" height="10" x="210" y="50" fill="#000" /><rect width="10" height="10" x="240" y="50" fill="#000" /><rect width="10" height="10" x="70" y="60" fill="#000" /><rect width="40" height="10" x="80" y="60" fill="#000" /><rect width="10" height="10" x="120" y="60" fill="#000" /><rect width="10" height="10" x="190" y="60" fill="#000" /><rect width="40" height="10" x="200" y="60" fill="#000" /><rect width="10" height="10" x="240" y="60" fill="#000" /><rect width="10" height="10" x="70" y="70" fill="#000" /><rect width="30" height="10" x="80" y="70" fill="#000" /><rect width="40" height="10" x="110" y="70" fill="#000" /><rect width="10" height="10" x="150" y="70" fill="#000" /><rect width="10" height="10" x="160" y="70" fill="#000" /><rect width="10" height="10" x="170" y="70" fill="#000" /><rect width="30" height="10" x="180" y="70" fill="#000" /><rect width="30" height="10" x="210" y="70" fill="#000" /><rect width="10" height="10" x="240" y="70" fill="#000" /><rect width="10" height="10" x="70" y="80" fill="#000" /><rect width="20" height="10" x="80" y="80" fill="#000" /><rect width="50" height="10" x="100" y="80" fill="#000" /><rect width="10" height="10" x="150" y="80" fill="#000" /><rect width="10" height="10" x="160" y="80" fill="#000" /><rect width="10" height="10" x="170" y="80" fill="#000" /><rect width="40" height="10" x="180" y="80" fill="#000" /><rect width="20" height="10" x="220" y="80" fill="#000" /><rect width="10" height="10" x="240" y="80" fill="#000" /><rect width="10" height="10" x="70" y="90" fill="#000" /><rect width="10" height="10" x="80" y="90" fill="#000" /><rect width="50" height="10" x="90" y="90" fill="#000" /><rect width="20" height="10" x="140" y="90" fill="#000" /><rect width="10" height="10" x="160" y="90" fill="#000" /><rect width="20" height="10" x="170" y="90" fill="#000" /><rect width="40" height="10" x="190" y="90" fill="#000" /><rect width="10" height="10" x="230" y="90" fill="#000" /><rect width="10" height="10" x="240" y="90" fill="#000" /><rect width="10" height="10" x="70" y="100" fill="#000" /><rect width="50" height="10" x="80" y="100" fill="#000" /><rect width="10" height="10" x="130" y="100" fill="#000" /><rect width="20" height="10" x="140" y="100" fill="#000" /><rect width="10" height="10" x="160" y="100" fill="#000" /><rect width="20" height="10" x="170" y="100" fill="#000" /><rect width="10" height="10" x="190" y="100" fill="#000" /><rect width="40" height="10" x="200" y="100" fill="#000" /><rect width="10" height="10" x="240" y="100" fill="#000" /><rect width="80" height="10" x="80" y="110" fill="#000" /><rect width="10" height="10" x="160" y="110" fill="#000" /><rect width="70" height="10" x="170" y="110" fill="#000" /><rect width="20" height="10" x="80" y="120" fill="#000" /><rect width="130" height="10" x="100" y="120" fill="#000" /><rect width="10" height="10" x="230" y="120" fill="#000" /><rect width="160" height="10" x="80" y="130" fill="#000" /><rect width="160" height="10" x="80" y="140" fill="#000" /><rect width="20" height="10" x="80" y="150" fill="#000" /><rect width="130" height="10" x="100" y="150" fill="#000" /><rect width="10" height="10" x="230" y="150" fill="#000" /><rect width="80" height="10" x="80" y="160" fill="#000" /><rect width="10" height="10" x="160" y="160" fill="#000" /><rect width="70" height="10" x="170" y="160" fill="#000" /><rect width="60" height="10" x="60" y="170" fill="#000" /><rect width="30" height="10" x="120" y="170" fill="#000" /><rect width="30" height="10" x="150" y="170" fill="#000" /><rect width="30" height="10" x="180" y="170" fill="#000" /><rect width="60" height="10" x="210" y="170" fill="#000" /><rect width="20" height="10" x="80" y="180" fill="#000" /><rect width="60" height="10" x="100" y="180" fill="#000" /><rect width="10" height="10" x="160" y="180" fill="#000" /><rect width="60" height="10" x="170" y="180" fill="#000" /><rect width="10" height="10" x="230" y="180" fill="#000" /><rect width="60" height="10" x="60" y="190" fill="#000" /><rect width="20" height="10" x="120" y="190" fill="#000" /><rect width="40" height="10" x="140" y="190" fill="#000" /><rect width="30" height="10" x="180" y="190" fill="#000" /><rect width="60" height="10" x="210" y="190" fill="#000" /><rect width="30" height="10" x="80" y="200" fill="#000" /><rect width="110" height="10" x="110" y="200" fill="#000" /><rect width="20" height="10" x="220" y="200" fill="#000" /><rect width="20" height="10" x="110" y="120" fill="#000" /><rect width="10" height="10" x="130" y="120" fill="#000" /><rect width="10" height="10" x="140" y="120" fill="#000" /><rect width="20" height="10" x="180" y="120" fill="#000" /><rect width="10" height="10" x="200" y="120" fill="#000" /><rect width="10" height="10" x="210" y="120" fill="#000" /><rect width="20" height="10" x="110" y="130" fill="#000" /><rect width="20" height="10" x="130" y="130" fill="#000" /><rect width="20" height="10" x="180" y="130" fill="#000" /><rect width="20" height="10" x="200" y="130" fill="#000" /><rect width="20" height="10" x="110" y="140" fill="#000" /><rect width="20" height="10" x="130" y="140" fill="#000" /><rect width="20" height="10" x="180" y="140" fill="#000" /><rect width="20" height="10" x="200" y="140" fill="#000" /><rect width="20" height="10" x="110" y="150" fill="#000" /><rect width="20" height="10" x="130" y="150" fill="#000" /><rect width="20" height="10" x="180" y="150" fill="#000" /><rect width="20" height="10" x="200" y="150" fill="#000" /><rect width="60" height="10" x="100" y="110" fill="#000" /><rect width="60" height="10" x="170" y="110" fill="#000" /><rect width="10" height="10" x="100" y="120" fill="#000" /><rect width="10" height="10" x="150" y="120" fill="#000" /><rect width="10" height="10" x="170" y="120" fill="#000" /><rect width="10" height="10" x="220" y="120" fill="#000" /><rect width="40" height="10" x="70" y="130" fill="#000" /><rect width="30" height="10" x="150" y="130" fill="#000" /><rect width="10" height="10" x="220" y="130" fill="#000" /><rect width="10" height="10" x="70" y="140" fill="#000" /><rect width="10" height="10" x="100" y="140" fill="#000" /><rect width="10" height="10" x="150" y="140" fill="#000" /><rect width="10" height="10" x="170" y="140" fill="#000" /><rect width="10" height="10" x="220" y="140" fill="#000" /><rect width="10" height="10" x="70" y="150" fill="#000" /><rect width="10" height="10" x="100" y="150" fill="#000" /><rect width="10" height="10" x="150" y="150" fill="#000" /><rect width="10" height="10" x="170" y="150" fill="#000" /><rect width="10" height="10" x="220" y="150" fill="#000" /><rect width="60" height="10" x="100" y="160" fill="#000" /><rect width="60" height="10" x="170" y="160" fill="#000" /></svg>